<svg width="199" height="62" viewBox="0 0 199 62" fill="none" xmlns="http://www.w3.org/2000/svg">
<g clip-path="url(#clip0_47_13358)">
<path d="M104.914 15.591C104.914 17.7943 103.125 19.5685 100.904 19.5685C98.683 19.5685 96.8946 17.7943 96.8946 15.591C96.8946 13.3877 98.6219 11.6135 100.904 11.6135C103.188 11.6747 104.914 13.4494 104.914 15.591ZM88.3818 23.6083V24.5877C88.3818 24.5877 86.4702 22.1386 82.3987 22.1386C75.6754 22.1386 70.4311 27.2184 70.4311 34.2557C70.4311 41.2325 75.6138 46.3727 82.3987 46.3727C86.5318 46.3727 88.3818 43.8638 88.3818 43.8638V44.9037C88.3818 45.3934 88.7528 45.7596 89.2458 45.7596H94.2417V22.7488H89.2458C88.7528 22.7506 88.3818 23.1798 88.3818 23.6083ZM88.3818 38.3561C87.4574 39.7029 85.6062 40.8657 83.3859 40.8657C79.4382 40.8657 76.4149 38.4178 76.4149 34.2557C76.4149 30.0942 79.4382 27.6463 83.3859 27.6463C85.5452 27.6463 87.519 28.8703 88.3818 30.1553V38.3561ZM97.9435 22.7506H103.865V45.7614H97.9435V22.7506ZM186.402 22.138C182.331 22.138 180.418 24.5871 180.418 24.5871V11.6747H174.497V45.7614H179.494C179.987 45.7614 180.357 45.3328 180.357 44.9043V43.8644C180.357 43.8644 182.269 46.3734 186.34 46.3734C193.064 46.3734 198.307 41.2343 198.307 34.2575C198.307 27.2807 193.064 22.138 186.402 22.138ZM185.415 40.8039C183.132 40.8039 181.344 39.6423 180.418 38.2949V30.0942C181.344 28.8703 183.318 27.5852 185.415 27.5852C189.363 27.5852 192.386 30.0331 192.386 34.1946C192.386 38.3561 189.364 40.8039 185.415 40.8039ZM171.413 32.1147V45.8225H165.49V32.7872C165.49 28.9938 164.256 27.4629 160.928 27.4629C159.139 27.4629 157.288 28.3812 156.114 29.728V45.762H150.194V22.7512H154.88C155.374 22.7512 155.744 23.1798 155.744 23.6083V24.5877C157.472 22.8124 159.754 22.1386 162.035 22.1386C164.627 22.1386 166.786 22.8741 168.513 24.3426C170.61 26.0562 171.413 28.2589 171.413 32.1147ZM135.819 22.138C131.748 22.138 129.835 24.5871 129.835 24.5871V11.6747H123.914V45.7614H128.91C129.403 45.7614 129.774 45.3328 129.774 44.9043V43.8644C129.774 43.8644 131.687 46.3734 135.757 46.3734C142.481 46.3734 147.724 41.2343 147.724 34.2575C147.786 27.2801 142.543 22.138 135.819 22.138ZM134.831 40.8039C132.549 40.8039 130.761 39.6423 129.835 38.2949V30.0942C130.761 28.8703 132.735 27.5852 134.831 27.5852C138.78 27.5852 141.802 30.0331 141.802 34.1946C141.802 38.3561 138.78 40.8039 134.831 40.8039ZM118.794 22.138C120.582 22.138 121.507 22.4449 121.507 22.4449V27.8909C121.507 27.8909 116.573 26.2384 113.489 29.7274V45.8219H107.566V22.7506H112.563C113.057 22.7506 113.426 23.1792 113.426 23.6077V24.5871C114.538 23.3014 116.944 22.138 118.794 22.138ZM57.2928 43.6804C56.9847 42.9461 56.6759 42.1507 56.3678 41.477C55.8736 40.376 55.38 39.3348 54.9492 38.3561L54.8876 38.2949C50.6306 29.1148 46.0666 19.8137 41.2544 10.6348L41.0695 10.2667C40.5634 9.31452 40.0701 8.35563 39.5899 7.3903C38.9724 6.28803 38.3562 5.12645 37.3689 4.02417C35.3951 1.57631 32.5573 0.229492 29.5352 0.229492C26.4503 0.229492 23.6747 1.57632 21.6399 3.9013C20.7143 5.00235 20.0352 6.16515 19.4189 7.26743C18.9375 8.23215 18.4443 9.19102 17.9393 10.1438L17.7538 10.5119C13.0038 19.6908 8.37764 28.9925 4.12123 38.172L4.059 38.2937C3.62763 39.2743 3.1334 40.3142 2.63978 41.4147C2.33166 42.0884 2.02354 42.8226 1.71541 43.618C0.913062 45.8818 0.665935 48.024 0.975291 50.228C1.65378 54.818 4.73747 58.672 8.9945 60.3869C10.5986 61.0606 12.2643 61.3662 13.991 61.3662C14.4846 61.3662 15.1009 61.3051 15.5951 61.2434C17.6312 60.9988 19.7283 60.3263 21.7644 59.1635C24.2934 57.7556 26.6993 55.7369 29.4132 52.7993C32.1271 55.7369 34.5946 57.7556 37.0621 59.1635C39.0987 60.3263 41.1952 60.9988 43.2307 61.2434C43.7243 61.3057 44.3418 61.3662 44.8354 61.3662C46.5627 61.3662 48.2894 61.0606 49.8313 60.3869C54.1499 58.672 57.172 54.7569 57.8511 50.228C58.341 48.0864 58.0945 45.9454 57.2928 43.6804ZM29.473 46.8625C26.1416 42.701 23.9822 38.7846 23.2427 35.4809C22.9346 34.0729 22.8724 32.849 23.0579 31.7473C23.1805 30.7679 23.5515 29.9108 24.0451 29.1766C25.2172 27.5253 27.191 26.4841 29.4736 26.4841C31.7568 26.4841 33.7923 27.4635 34.9027 29.1766C35.3963 29.9108 35.7661 30.7685 35.8906 31.7473C36.0748 32.8496 36.0132 34.134 35.7051 35.4809C34.9625 38.7235 32.8032 42.6404 29.473 46.8625ZM54.0846 49.7389C53.6532 52.921 51.4939 55.6757 48.4718 56.8997C46.9916 57.511 45.3869 57.695 43.7841 57.511C42.2422 57.327 40.6991 56.8373 39.0963 55.9203C36.8753 54.6951 34.655 52.7993 32.0637 49.9834C36.1346 45.0272 38.6021 40.4976 39.5277 36.4596C39.9596 34.562 40.0219 32.849 39.8358 31.257C39.5899 29.7274 39.034 28.3194 38.1707 27.0955C36.2572 24.3407 33.0491 22.7506 29.4724 22.7506C25.8957 22.7506 22.6875 24.4031 20.7753 27.0955C19.9119 28.3194 19.3561 29.7274 19.1096 31.257C18.8631 32.849 18.9241 34.6231 19.4177 36.4596C20.3427 40.4976 22.8718 45.0877 26.8811 50.0446C24.352 52.8599 22.0694 54.7575 19.8484 55.9814C18.2444 56.8997 16.7031 57.3894 15.1613 57.5722C13.4962 57.7562 11.8915 57.511 10.4729 56.9608C7.45081 55.7369 5.29149 52.9821 4.86012 49.8C4.67524 48.2704 4.79788 46.7408 5.41535 45.0272C5.59961 44.4146 5.90896 43.8032 6.21709 43.069C6.64908 42.0896 7.14146 41.0485 7.63569 40.0086L7.69794 39.8869C11.9537 30.7679 16.5183 21.4661 21.2683 12.4095L21.4532 12.0415C21.9474 11.1245 22.441 10.1451 22.934 9.22681C23.4276 8.24742 23.9822 7.32916 24.6613 6.53318C25.9567 5.06593 27.6834 4.26933 29.5962 4.26933C31.509 4.26933 33.2358 5.06593 34.5311 6.53318C35.2102 7.331 35.7648 8.24926 36.2585 9.22681C36.7527 10.1451 37.2463 11.1245 37.7387 12.0415L37.9242 12.4095C42.6018 21.5038 47.1057 30.6849 51.4335 39.948V40.0092C51.9277 40.9898 52.3591 42.0902 52.8527 43.0708C53.1609 43.8038 53.4696 44.4152 53.6545 45.0278C54.1468 46.6173 54.3317 48.1481 54.0846 49.7389Z" fill="#CFCFDE"/>
</g>
<defs>
<clipPath id="clip0_47_13358">
<rect width="197.519" height="61.1368" fill="white" transform="translate(0.81488 0.22998)"/>
</clipPath>
</defs>
</svg>
