<svg width="189" height="57" viewBox="0 0 189 57" fill="none" xmlns="http://www.w3.org/2000/svg">
<g clip-path="url(#clip0_47_13362)">
<path fill-rule="evenodd" clip-rule="evenodd" d="M116.757 44.4727C105.867 52.4971 90.0267 56.7724 76.3644 56.7724C57.2239 56.7724 40.0634 49.7346 26.9951 38.0269C26.005 37.106 26.863 35.8563 28.1171 36.5799C42.1755 44.7358 59.5339 49.6031 77.4864 49.6031C89.5647 49.6031 102.897 47.1036 115.173 41.9075C117.021 41.184 118.54 43.1572 116.757 44.4727Z" fill="#CFCFDE"/>
<path fill-rule="evenodd" clip-rule="evenodd" d="M121.312 39.2768C119.926 37.5009 112.071 38.4218 108.573 38.8822C107.517 39.0137 107.319 38.0929 108.309 37.4351C114.579 33.0283 124.81 34.3438 125.998 35.7908C127.186 37.2378 125.668 47.4985 119.794 52.3658C118.87 53.0893 118.012 52.6947 118.408 51.7081C119.728 48.4194 122.698 41.1185 121.312 39.2768Z" fill="#CFCFDE"/>
<path fill-rule="evenodd" clip-rule="evenodd" d="M108.772 6.52136V2.24606C108.772 1.58832 109.234 1.19367 109.828 1.19367H128.968C129.562 1.19367 130.09 1.6541 130.09 2.24606V5.86362C130.09 6.45558 129.562 7.24487 128.638 8.56035L118.738 22.6359C122.434 22.5702 126.328 23.0964 129.628 24.938C130.354 25.3327 130.552 25.9904 130.618 26.5824V31.1208C130.618 31.7785 129.958 32.502 129.232 32.1074C123.358 29.016 115.504 28.6871 109.036 32.1731C108.376 32.502 107.65 31.8443 107.65 31.1865V26.8455C107.65 26.1877 107.65 25.0038 108.376 23.9514L119.86 7.57374H109.894C109.3 7.57374 108.772 7.11332 108.772 6.52136ZM39.0077 33.0282H33.1995C32.6715 32.9624 32.2095 32.5678 32.1435 32.0416V2.31184C32.1435 1.71987 32.6715 1.25945 33.2655 1.25945H38.6777C39.2717 1.25945 39.6677 1.71987 39.7337 2.24606V6.12671H39.8657C41.2518 2.3776 43.9578 0.601714 47.5219 0.601714C51.152 0.601714 53.4621 2.3776 55.0461 6.12671C56.4322 2.3776 59.6662 0.601714 63.0983 0.601714C65.5404 0.601714 68.1805 1.58832 69.8305 3.8904C71.6786 6.38981 71.2826 10.0074 71.2826 13.2303V32.0416C71.2826 32.6336 70.7545 33.094 70.1605 33.094H64.4184C63.8244 33.0282 63.3623 32.5678 63.3623 32.0416V16.2559C63.3623 15.0062 63.4944 11.849 63.2304 10.6651C62.7683 8.69188 61.5143 8.09992 59.7982 8.09992C58.4122 8.09992 56.8942 9.02077 56.3002 10.5336C55.7061 12.0464 55.7721 14.5458 55.7721 16.2559V32.0416C55.7721 32.6336 55.2441 33.094 54.6501 33.094H48.842C48.2479 33.0282 47.7859 32.5678 47.7859 32.0416V16.2559C47.7859 12.9672 48.3139 8.03415 44.2218 8.03415C40.0637 8.03415 40.1957 12.7699 40.1957 16.2559V32.0416C40.1297 32.5678 39.6677 33.0282 39.0077 33.0282ZM146.591 0.601714C155.237 0.601714 159.923 7.96838 159.923 17.374C159.923 26.4508 154.775 33.6859 146.591 33.6859C138.142 33.6859 133.522 26.3193 133.522 17.1109C133.456 7.83684 138.142 0.601714 146.591 0.601714ZM146.591 6.71867C142.3 6.71867 142.036 12.5726 142.036 16.1901C142.036 19.8077 141.97 27.569 146.525 27.569C151.013 27.569 151.277 21.3205 151.277 17.5056C151.277 15.0062 151.145 11.9806 150.419 9.61273C149.759 7.50797 148.439 6.71867 146.591 6.71867ZM171.077 33.0282H165.269C164.675 32.9624 164.213 32.502 164.213 31.9758V2.18028C164.279 1.65409 164.741 1.19367 165.335 1.19367H170.747C171.275 1.19367 171.671 1.58833 171.803 2.04875V6.58713H171.935C173.585 2.50916 175.829 0.601714 179.855 0.601714C182.43 0.601714 185.004 1.52254 186.654 4.08772C188.172 6.45557 188.172 10.4678 188.172 13.3618V32.1074C188.106 32.6336 187.644 33.0282 187.05 33.0282H181.242C180.713 32.9624 180.251 32.5678 180.185 32.1074V15.927C180.185 12.6383 180.581 7.90261 176.555 7.90261C175.169 7.90261 173.849 8.82345 173.189 10.2705C172.397 12.1121 172.265 13.888 172.265 15.927V31.9758C172.199 32.5678 171.671 33.0282 171.077 33.0282ZM93.5252 18.8211C93.5252 21.0574 93.5912 22.9648 92.4691 25.0038C91.5451 26.6481 90.0931 27.6348 88.443 27.6348C86.199 27.6348 84.8789 25.9246 84.8789 23.4252C84.8789 18.4922 89.301 17.5713 93.5252 17.5713V18.8211ZM99.3993 32.9624C99.0033 33.2913 98.4753 33.3571 98.0133 33.094C96.0992 31.5154 95.7032 30.7261 94.6472 29.2133C91.4791 32.4362 89.169 33.4228 85.0769 33.4228C80.1928 33.4228 76.3647 30.3973 76.3647 24.4118C76.3647 19.6761 78.9388 16.519 82.5689 14.9404C85.7369 13.5591 90.1591 13.2961 93.5252 12.9014V12.1779C93.5252 10.7967 93.6572 9.15232 92.7991 7.96839C92.0731 6.91601 90.7531 6.45558 89.565 6.45558C87.321 6.45558 85.3409 7.57375 84.8789 9.9416C84.7469 10.4678 84.4169 10.994 83.8889 10.994L78.2787 10.402C77.8167 10.2705 77.2887 9.9416 77.4207 9.21809C78.7408 2.37761 84.8789 0.338623 90.4231 0.338623C93.2611 0.338623 96.9573 1.06213 99.2013 3.23267C102.039 5.86362 101.775 9.41541 101.775 13.2303V22.2413C101.775 24.938 102.897 26.122 103.953 27.6348C104.349 28.1609 104.415 28.8187 103.953 29.1475C102.699 30.1341 100.587 31.9758 99.3993 32.9624ZM17.2931 18.8211C17.2931 21.0574 17.3591 22.9648 16.2371 25.0038C15.3131 26.6481 13.861 27.6348 12.211 27.6348C9.96691 27.6348 8.64688 25.9246 8.64688 23.4252C8.64688 18.4922 13.069 17.5713 17.2931 17.5713V18.8211ZM23.1013 32.9624C22.7053 33.2913 22.1772 33.3571 21.7152 33.094C19.8012 31.5154 19.4052 30.7261 18.3491 29.2133C15.1811 32.4362 12.871 33.4228 8.77888 33.4228C3.89475 33.4228 0.0666504 30.3973 0.0666504 24.4118C0.0666504 19.6761 2.64072 16.519 6.27081 14.9404C9.4389 13.5591 13.861 13.2961 17.2271 12.9014V12.1779C17.2271 10.7967 17.3591 9.15232 16.5011 7.96839C15.7751 6.91601 14.455 6.45558 13.267 6.45558C11.0229 6.45558 9.04289 7.57375 8.58087 9.9416C8.44887 10.4678 8.11886 10.994 7.59085 10.994L1.9807 10.402C1.51869 10.2705 0.990679 9.9416 1.12268 9.21809C2.44272 2.37761 8.58088 0.338623 14.125 0.338623C16.9631 0.338623 20.6592 1.06213 22.9033 3.23267C25.7413 5.86362 25.4773 9.41541 25.4773 13.2303V22.2413C25.4773 24.938 26.5994 26.122 27.6554 27.6348C28.0514 28.1609 28.1174 28.8187 27.6554 29.1475C26.4014 30.1341 24.2893 31.9758 23.1013 32.9624Z" fill="#CFCFDE"/>
</g>
<defs>
<clipPath id="clip0_47_13362">
<rect width="188.113" height="56.4339" fill="white" transform="matrix(-1 0 0 -1 188.176 56.7725)"/>
</clipPath>
</defs>
</svg>
