<svg width="238" height="48" viewBox="0 0 238 48" fill="none" xmlns="http://www.w3.org/2000/svg">
<path d="M122.793 23.0117C120.838 23.0117 119.429 23.6551 118 24.3106V39.142C119.369 39.2729 120.153 39.2729 121.452 39.2729C126.144 39.2729 126.787 37.1163 126.787 34.1051V27.0215C126.787 24.7978 126.052 23.0117 122.793 23.0117ZM91.6305 22.2023C88.3749 22.2023 87.6319 23.996 87.6319 26.2176V27.4658H95.6247V26.2176C95.6247 23.996 94.8818 22.2023 91.6305 22.2023ZM31.2624 37.6397C31.2624 39.3972 32.0887 40.31 33.9121 40.31C35.8681 40.31 37.0264 39.6699 38.4542 39.0123V35.4941H34.1773C32.1522 35.4941 31.2624 35.8724 31.2624 37.6397ZM153.106 23.0117C149.845 23.0117 148.716 24.7978 148.716 27.0215V35.1367C148.716 37.3659 149.845 39.1574 153.106 39.1574C156.359 39.1574 157.497 37.3659 157.497 35.1367V27.0215C157.496 24.7978 156.358 23.0117 153.106 23.0117ZM15.2812 46.7392H5.69505V23.4527H0.905273V15.4288H5.69614V10.6097C5.69614 4.06273 8.3995 0.170654 16.0833 0.170654H22.4806V8.19676H18.482C15.4905 8.19676 15.2932 9.31852 15.2932 11.4114L15.2812 15.4277H22.5245L21.6774 23.4516H15.2812V46.7392ZM48.0425 46.7997H40.053L39.7078 44.7717C36.0599 46.7997 32.8042 47.1285 30.6565 47.1285C24.7972 47.1285 21.6785 43.2002 21.6785 37.7673C21.6785 31.3579 25.3177 29.0704 31.8279 29.0704H38.4542V27.6846C38.4542 24.4128 38.0806 23.4527 33.0672 23.4527H24.8706L25.6716 15.4288H34.631C45.6307 15.4288 48.0425 18.9162 48.0425 27.7495V46.7997ZM75.2109 24.0411C70.2392 23.1855 68.8114 22.9974 66.4193 22.9974C62.1226 22.9974 60.8241 23.9487 60.8241 27.611V34.5384C60.8241 38.2006 62.1226 39.1563 66.4193 39.1563C68.8114 39.1563 70.2392 38.965 75.2109 38.106V45.9331C70.8562 46.913 68.0191 47.1703 65.6215 47.1703C55.3297 47.1703 51.239 41.7386 51.239 33.8917V28.2708C51.239 20.4174 55.3297 14.9757 65.6215 14.9757C68.0191 14.9757 70.8562 15.2342 75.2109 16.2185V24.0411ZM105.21 33.8917H87.6308V34.5384C87.6308 38.2006 88.9304 39.1563 93.226 39.1563C97.0876 39.1563 99.4447 38.965 104.408 38.106V45.9331C99.6211 46.913 97.1271 47.1703 92.4315 47.1703C82.1386 47.1703 78.0458 41.7386 78.0458 33.8917V27.4647C78.0458 20.5988 81.0823 14.9757 91.6294 14.9757C102.177 14.9757 105.21 20.534 105.21 27.4647V33.8917ZM136.371 34.0402C136.371 41.6242 134.211 47.156 121.127 47.156C116.402 47.156 113.631 46.7392 108.416 45.9342V2.58135L117.999 0.976786V16.1415C120.07 15.3694 122.75 14.9768 125.19 14.9768C134.774 14.9768 136.37 19.289 136.37 26.2187V34.0402H136.371ZM167.09 34.2052C167.09 40.7477 164.399 47.0934 153.138 47.0934C141.872 47.0934 139.13 40.7477 139.13 34.2052V27.8881C139.13 21.3423 141.872 14.9955 153.138 14.9955C164.399 14.9955 167.09 21.3423 167.09 27.8881V34.2052ZM197.788 34.2052C197.788 40.7477 195.093 47.0934 183.835 47.0934C172.569 47.0934 169.827 40.7477 169.827 34.2052V27.8881C169.827 21.3423 172.569 14.9955 183.835 14.9955C195.093 14.9955 197.788 21.3423 197.788 27.8881V34.2052ZM229.291 46.7392H218.904L210.119 32.021V46.7392H200.533V2.58025L210.119 0.975685V29.4036L218.904 15.4288H229.291L219.701 30.6793L229.291 46.7392ZM183.802 23.0117C180.547 23.0117 179.417 24.7978 179.417 27.0215V35.1367C179.417 37.3659 180.547 39.1574 183.802 39.1574C187.053 39.1574 188.204 37.3659 188.204 35.1367V27.0215C188.204 24.7978 187.053 23.0117 183.802 23.0117ZM234.763 41.247C236.377 41.247 237.662 42.5678 237.662 44.2175C237.662 45.8924 236.376 47.1989 234.751 47.1989C233.133 47.1989 231.822 45.8924 231.822 44.2175C231.822 42.5678 233.133 41.247 234.751 41.247H234.763ZM234.751 41.7089C233.45 41.7089 232.386 42.8317 232.386 44.2175C232.386 45.6285 233.451 46.737 234.763 46.737C236.076 46.7502 237.124 45.6285 237.124 44.2307C237.124 42.8328 236.076 41.7089 234.763 41.7089H234.751ZM234.2 45.9463H233.674V42.6316C233.95 42.5931 234.213 42.5546 234.607 42.5546C235.107 42.5546 235.433 42.6602 235.634 42.8043C235.828 42.9505 235.932 43.1738 235.932 43.4894C235.932 43.9271 235.645 44.19 235.291 44.2966V44.3219C235.579 44.3758 235.775 44.6376 235.842 45.1248C235.919 45.6406 235.999 45.8374 236.05 45.9452H235.499C235.421 45.8374 235.341 45.535 235.276 45.0984C235.199 44.6772 234.986 44.5188 234.566 44.5188H234.201V45.9463H234.2ZM234.2 44.1119H234.581C235.013 44.1119 235.38 43.9524 235.38 43.5422C235.38 43.2519 235.171 42.9626 234.581 42.9626C234.409 42.9626 234.289 42.9758 234.2 42.9879V44.1119Z" fill="#CFCFDE"/>
</svg>
