<svg width="207" height="68" viewBox="0 0 207 68" fill="none" xmlns="http://www.w3.org/2000/svg">
<g clip-path="url(#clip0_47_13349)">
<path d="M25.3778 0.237305H27.2103C33.572 0.37501 39.83 2.92256 44.3247 7.43241C42.6652 9.11931 40.971 10.7373 39.346 12.4242C36.822 10.1521 33.7795 8.39635 30.4603 7.77668C25.5507 6.74389 20.2608 7.6734 16.1464 10.4619C11.6517 13.3882 8.60912 18.3456 7.9522 23.6472C7.22613 28.88 8.71284 34.3883 12.1357 38.4506C15.4203 42.4096 20.4337 44.8883 25.6199 45.0604C30.4603 45.3358 35.5082 43.8555 39.0348 40.4817C41.8008 38.1063 43.0801 34.4915 43.495 30.98C37.7556 30.98 32.0162 31.0145 26.2768 30.98V23.8882H50.4445C51.6892 31.4964 49.8913 40.0686 44.0827 45.508C40.2104 49.3637 34.8513 51.6359 29.3885 52.0834C24.0986 52.5998 18.6358 51.6014 13.9336 49.0539C8.29795 46.0588 3.80324 40.9981 1.59046 35.0424C-0.484016 29.5686 -0.51859 23.3718 1.41759 17.8636C3.1809 12.8374 6.56922 8.39635 10.9256 5.29798C15.1092 2.23403 20.1916 0.547142 25.3778 0.237305Z" fill="#CFCFDE"/>
<path d="M164.022 2.02637H171.421V51.1872C168.966 51.1872 166.477 51.2216 164.022 51.1528C164.057 34.8003 164.022 18.4133 164.022 2.02637Z" fill="#CFCFDE"/>
<path d="M66.902 19.0671C71.4658 18.2064 76.41 19.1704 80.1787 21.8901C83.6015 24.2999 85.9872 28.0868 86.7133 32.218C87.6468 37.0032 86.4712 42.236 83.3595 46.0229C80.0058 50.2574 74.5084 52.5295 69.1493 52.1853C64.2397 51.9098 59.4684 49.4656 56.5642 45.4721C53.2796 41.0655 52.4843 35.0065 54.2822 29.8426C56.0801 24.2999 61.1626 20.0655 66.902 19.0671ZM67.9392 25.6081C66.0722 26.0901 64.3435 27.1573 63.0988 28.6721C59.745 32.6655 59.9525 39.1721 63.652 42.8901C65.761 45.0246 68.9419 46.0229 71.8807 45.4377C74.6121 44.9557 76.9978 43.1311 78.3116 40.7213C80.5936 36.6245 79.9366 30.9786 76.4446 27.777C74.1972 25.7114 70.9126 24.8507 67.9392 25.6081Z" fill="#CFCFDE"/>
<path d="M103.551 19.0674C108.772 18.0691 114.477 19.515 118.384 23.1642C124.745 28.8445 125.437 39.4823 120.009 46.0233C116.724 50.1544 111.4 52.4266 106.144 52.1856C101.131 52.0479 96.1867 49.5692 93.2133 45.4725C89.8596 40.9626 89.1335 34.7659 91.0351 29.4986C92.9367 24.1281 97.9155 20.0314 103.551 19.0674ZM104.588 25.6085C102.721 26.0904 100.993 27.1576 99.7479 28.638C96.4288 32.5626 96.5671 38.9659 100.128 42.7184C102.237 44.9561 105.522 46.0577 108.564 45.438C111.261 44.9216 113.682 43.1315 114.995 40.7216C117.243 36.5905 116.586 30.9445 113.059 27.7429C110.812 25.6773 107.527 24.8511 104.588 25.6085Z" fill="#CFCFDE"/>
<path d="M134.634 21.064C138.61 18.5853 143.9 17.8968 148.187 20.0312C149.536 20.6165 150.642 21.6148 151.714 22.6132C151.749 21.6837 151.714 20.7198 151.749 19.7558C154.065 19.7902 156.382 19.7558 158.733 19.7902V50.1543C158.698 54.733 157.523 59.5871 154.203 62.9265C150.573 66.6101 145.007 67.7461 139.993 66.9888C134.634 66.197 129.967 62.3068 127.892 57.3838C129.967 56.3855 132.145 55.5937 134.288 54.6641C135.499 57.4871 137.953 59.8969 141.03 60.4478C144.108 60.9986 147.669 60.2412 149.674 57.6937C151.818 55.0773 151.818 51.4969 151.714 48.2953C150.124 49.8444 148.291 51.2215 146.078 51.7379C141.272 53.0805 135.983 51.4281 132.283 48.192C128.549 44.9559 126.336 39.9641 126.544 35.0067C126.647 29.3952 129.828 23.9903 134.634 21.064ZM141.791 25.4706C139.682 25.8149 137.711 26.9854 136.363 28.6034C133.113 32.4591 133.113 38.6215 136.397 42.4084C138.264 44.6461 141.272 45.8854 144.177 45.5756C146.908 45.3002 149.432 43.5789 150.781 41.2034C153.062 37.1756 152.682 31.7018 149.605 28.1903C147.703 26.0214 144.661 24.9542 141.791 25.4706Z" fill="#CFCFDE"/>
<path d="M180.307 22.8198C184.456 18.964 190.852 17.6558 196.177 19.687C201.224 21.5804 204.44 26.3657 206.065 31.2887C198.562 34.387 191.094 37.451 183.591 40.5494C184.629 42.5117 186.219 44.3018 188.363 45.0248C191.371 46.092 194.966 45.7133 197.49 43.7166C198.493 42.9592 199.288 41.9608 200.049 40.9969C201.95 42.2707 203.852 43.51 205.754 44.7838C203.057 48.8117 198.528 51.6347 193.653 52.0822C188.259 52.7363 182.519 50.6707 179.027 46.4707C173.288 39.8608 173.841 28.7755 180.307 22.8198ZM184.006 29.1887C182.831 30.8755 182.347 32.9411 182.381 34.9723C187.395 32.9067 192.408 30.8411 197.421 28.7411C196.591 26.8132 194.586 25.6427 192.546 25.3329C189.262 24.7477 185.839 26.5034 184.006 29.1887Z" fill="#CFCFDE"/>
</g>
<defs>
<clipPath id="clip0_47_13349">
<rect width="206.065" height="66.9711" fill="white" transform="translate(0 0.22998)"/>
</clipPath>
</defs>
</svg>
