<svg width="161" height="62" viewBox="0 0 161 62" fill="none" xmlns="http://www.w3.org/2000/svg">
<path d="M127.486 19.4697V0H131.458V16.7366C130.358 17.2893 128.861 18.3334 127.486 19.4697ZM120.579 25.3352C121.802 23.8611 123.055 22.3871 124.552 21.128V0H120.579V25.3352ZM74.5577 40.8126C74.5577 46.0025 76.6052 50.9467 80.3639 54.724C84.0921 58.4705 89.012 60.5587 94.207 60.5587C96.4073 60.5587 98.6686 60.0981 100.258 59.2996V55.3074C98.3936 56.1059 96.1322 56.5665 94.207 56.5665C85.7117 56.5665 78.5609 49.3805 78.5609 40.8434V37.2504C78.5609 28.7132 85.7422 21.5272 94.207 21.5272C98.4242 21.5272 102.366 23.1548 105.3 26.1029C108.234 29.051 109.853 33.0125 109.853 37.2504V60.5894H113.826V36.4826C113.581 31.3849 111.412 26.625 107.745 23.0627C104.047 19.5004 99.2492 17.535 94.207 17.535C89.0426 17.535 84.1226 19.5925 80.3639 23.3698C76.6357 27.1163 74.5577 32.0605 74.5577 37.2811V40.8126ZM134.025 31.2313C135.828 29.4195 138.151 28.4061 140.443 28.4061C145.363 28.4061 149.182 32.2755 149.182 37.189V40.7819C149.182 45.7261 145.332 49.5648 140.443 49.5648C138.059 49.5648 135.767 48.2443 133.964 45.8797C132.375 43.7915 131.336 40.9355 131.183 38.3866L127.975 42.3788C128.616 45.3883 130.175 48.3057 132.406 50.3325C134.697 52.4208 137.57 53.5877 140.443 53.5877C147.471 53.5877 153.186 47.8451 153.186 40.8126V37.2197C153.186 33.8723 151.841 30.6786 149.396 28.2526C146.952 25.7958 143.773 24.4446 140.443 24.4446C138.334 24.4446 135.003 25.2123 131.03 28.8053C129.961 29.8801 127.455 32.3983 125.927 34.1794C123.36 37.0047 119.663 41.2119 116.484 45.4805V51.7144C119.999 47.1695 122.016 44.6206 125.346 40.7819C128.28 37.2811 131.947 33.0739 134.025 31.2313ZM40.1485 23.7076V18.9783C36.5426 17.0437 32.631 16.1838 27.436 16.1838C22.1188 16.1838 17.0766 18.1492 13.2567 21.6808C9.40633 25.243 7.29777 29.9109 7.29777 34.8858V36.1755C7.29777 46.4939 15.5181 54.8775 25.6636 54.8775C33.8839 54.8775 37.276 52.1751 38.1316 51.3152V39.3079H24.6857V43.3001H34.4034V49.3191H34.3729C33.12 49.8105 30.5225 50.8546 25.6636 50.8546C21.8132 50.8546 18.1767 49.3498 15.4875 46.586C12.7678 43.8222 11.301 40.137 11.301 36.1448V34.855C11.301 26.9013 18.6962 20.1453 27.4666 20.1453C33.4867 20.176 37.0926 21.1894 40.1485 23.7076ZM69.1183 28.4061C70.6156 28.4061 71.8991 28.6518 72.9381 29.1431C73.427 27.9147 73.9465 26.8706 74.68 25.6423C73.6104 24.8745 71.0129 24.3832 69.1183 24.3832C61.8758 24.3832 56.4058 29.8801 56.4058 37.189V60.528H60.3784V37.189C60.3784 32.0298 63.9538 28.4061 69.1183 28.4061ZM0.391479 34.8858V36.1755C0.391479 43.1158 3.01954 49.5648 7.75615 54.3862C12.4928 59.1768 18.849 61.8178 25.6331 61.8178C31.1031 61.8178 35.9314 60.5894 40.0263 58.1327C43.3877 56.1059 44.8851 54.0791 45.0074 53.8948V32.3983H24.6857V36.3905H41.0347V52.6972C39.1095 54.6318 34.5562 57.8563 25.6636 57.8563C19.8574 57.8563 14.4791 55.6145 10.5064 51.5609C6.56436 47.538 4.39468 42.0717 4.39468 36.2063V34.9165C4.39468 29.3581 6.86995 23.8304 11.2093 19.7461C15.6403 15.5696 21.4159 13.2664 27.4666 13.2664C33.12 13.2664 37.0315 14.1263 40.1791 16.061V11.5467C36.8787 10.1341 32.9366 9.51988 27.436 9.51988C12.7678 9.51988 0.391479 21.128 0.391479 34.8858ZM106.889 60.528V37.189C106.889 30.003 101.297 24.3832 94.1459 24.3832C90.815 24.3832 87.6369 25.7344 85.1922 28.1911C82.7475 30.6479 81.4029 33.8416 81.4029 37.1582V40.7512C81.4029 47.6915 87.2396 53.5263 94.1154 53.5263C96.01 53.5263 98.577 53.0657 100.166 51.7452V47.5994C98.6075 48.8585 96.3767 49.5955 94.1154 49.5955C89.226 49.5955 85.3755 45.7261 85.3755 40.8126V37.2197C85.3755 32.2755 89.226 28.4368 94.1154 28.4368C99.0353 28.4368 102.855 32.3062 102.855 37.2197V60.5587H106.889V60.528ZM69.1183 21.4658C71.8074 21.4658 74.1605 22.0493 76.269 23.2469C77.2469 21.9879 78.2553 21.0052 79.0193 20.2374C76.7885 18.5177 72.9992 17.4736 69.1488 17.4736C63.6177 17.4736 58.606 19.4697 55.0306 23.1241C51.4858 26.7171 49.5301 31.7227 49.5301 37.2197V60.5587H53.5027V37.2197C53.4721 27.9455 59.8895 21.4658 69.1183 21.4658ZM154.286 23.3084C150.557 19.5618 145.638 17.4736 140.443 17.4736C136.653 17.4736 132.864 18.8862 130.755 20.2988C126.416 23.1855 122.871 26.3486 116.454 34.6708V40.6591C121.893 33.5345 127.027 27.9455 130.939 24.8438C133.506 22.7863 137.142 21.4965 140.443 21.4965C148.938 21.4965 156.089 28.7132 156.089 37.2197V40.8126C156.089 45.0198 154.438 48.9813 151.444 51.9601C148.479 54.9082 144.568 56.5358 140.443 56.5358C133.475 56.5358 127.333 51.7145 125.683 45.1734L122.871 48.5821C124.919 55.461 132.314 60.528 140.443 60.528C145.638 60.528 150.527 58.4398 154.286 54.6933C158.014 50.916 160.092 46.0025 160.092 40.7819V37.189C160.092 31.9991 158.014 27.0549 154.286 23.3084Z" fill="#CFCFDE"/>
</svg>
