<svg width="87" height="36" viewBox="0 0 87 36" fill="none" xmlns="http://www.w3.org/2000/svg">
<path d="M34.8681 17.9813C34.8681 26.8854 27.4293 34.1531 18.1909 34.1531C8.95258 34.1531 1.51379 26.8854 1.51379 17.9813C1.51379 9.07734 8.95258 1.80956 18.1909 1.80956C27.4293 1.80956 34.8681 9.07734 34.8681 17.9813Z" stroke="black" stroke-opacity="0.33" stroke-width="2.02147"/>
<path d="M20.7178 10.9062L12.6319 18.3294L20.7178 25.0566" stroke="black" stroke-opacity="0.33" stroke-width="2.02147" stroke-linecap="round"/>
<path d="M52.0506 17.9813C52.0506 26.8854 59.4894 34.1531 68.7278 34.1531C77.9661 34.1531 85.4049 26.8854 85.4049 17.9813C85.4049 9.07734 77.9661 1.80956 68.7278 1.80956C59.4894 1.80956 52.0506 9.07734 52.0506 17.9813Z" stroke="black" stroke-width="2.02147"/>
<path d="M66.2009 10.9062L74.2868 18.3294L66.2009 25.0566" stroke="black" stroke-width="2.02147" stroke-linecap="round"/>
</svg>
