<svg width="25" height="25" viewBox="0 0 25 25" fill="none" xmlns="http://www.w3.org/2000/svg">
<g clip-path="url(#clip0_9_478)">
<path d="M12.2797 2.76289C15.4344 2.76289 15.8047 2.77695 17.0516 2.8332C18.2047 2.88477 18.8281 3.07695 19.2453 3.24102C19.7984 3.45664 20.1922 3.70977 20.6047 4.12227C21.0172 4.53477 21.275 4.92852 21.4859 5.48164C21.6453 5.89883 21.8422 6.52227 21.8938 7.67539C21.95 8.92227 21.9641 9.29258 21.9641 12.4473C21.9641 15.602 21.95 15.9723 21.8938 17.2191C21.8422 18.3723 21.65 18.9957 21.4859 19.4129C21.2703 19.966 21.0172 20.3598 20.6047 20.7723C20.1922 21.1848 19.7984 21.4426 19.2453 21.6535C18.8281 21.8129 18.2047 22.0098 17.0516 22.0613C15.8047 22.1176 15.4344 22.1316 12.2797 22.1316C9.125 22.1316 8.75469 22.1176 7.50782 22.0613C6.35469 22.0098 5.73125 21.8176 5.31407 21.6535C4.76094 21.4379 4.36719 21.1848 3.95469 20.7723C3.54219 20.3598 3.28438 19.966 3.07344 19.4129C2.91407 18.9957 2.71719 18.3723 2.66563 17.2191C2.60938 15.9723 2.59532 15.602 2.59532 12.4473C2.59532 9.29258 2.60938 8.92227 2.66563 7.67539C2.71719 6.52227 2.90938 5.89883 3.07344 5.48164C3.28907 4.92852 3.54219 4.53477 3.95469 4.12227C4.36719 3.70977 4.76094 3.45195 5.31407 3.24102C5.73125 3.08164 6.35469 2.88477 7.50782 2.8332C8.75469 2.77227 9.125 2.76289 12.2797 2.76289ZM12.2797 0.634766C9.07344 0.634766 8.67032 0.648828 7.40938 0.705078C6.15313 0.761328 5.29532 0.962891 4.54532 1.25352C3.76719 1.55352 3.11094 1.96133 2.45469 2.61758C1.79844 3.27383 1.39532 3.93477 1.09063 4.7082C0.800003 5.4582 0.598441 6.31602 0.542191 7.57695C0.485941 8.8332 0.471878 9.23633 0.471878 12.4426C0.471878 15.6488 0.485941 16.052 0.542191 17.3129C0.598441 18.5691 0.800003 19.427 1.09063 20.1816C1.39063 20.9598 1.79844 21.616 2.45469 22.2723C3.11094 22.9285 3.77188 23.3316 4.54532 23.6363C5.29532 23.927 6.15313 24.1285 7.41407 24.1848C8.675 24.241 9.07344 24.2551 12.2844 24.2551C15.4953 24.2551 15.8938 24.241 17.1547 24.1848C18.4109 24.1285 19.2688 23.927 20.0234 23.6363C20.8016 23.3363 21.4578 22.9285 22.1141 22.2723C22.7703 21.616 23.1734 20.9551 23.4781 20.1816C23.7688 19.4316 23.9703 18.5738 24.0266 17.3129C24.0828 16.052 24.0969 15.6535 24.0969 12.4426C24.0969 9.23164 24.0828 8.8332 24.0266 7.57227C23.9703 6.31602 23.7688 5.4582 23.4781 4.70352C23.1781 3.92539 22.7703 3.26914 22.1141 2.61289C21.4578 1.95664 20.7969 1.55352 20.0234 1.24883C19.2734 0.958203 18.4156 0.756641 17.1547 0.700391C15.8891 0.648828 15.4859 0.634766 12.2797 0.634766Z" fill="white"/>
<path d="M12.2797 6.37695C8.93282 6.37695 6.21407 9.09102 6.21407 12.4426C6.21407 15.7941 8.93282 18.5082 12.2797 18.5082C15.6266 18.5082 18.3453 15.7895 18.3453 12.4426C18.3453 9.0957 15.6266 6.37695 12.2797 6.37695ZM12.2797 16.3801C10.1047 16.3801 8.34219 14.6176 8.34219 12.4426C8.34219 10.2676 10.1047 8.50508 12.2797 8.50508C14.4547 8.50508 16.2172 10.2676 16.2172 12.4426C16.2172 14.6176 14.4547 16.3801 12.2797 16.3801Z" fill="white"/>
<path d="M18.5844 7.55391C19.3662 7.55391 20 6.92011 20 6.13828C20 5.35645 19.3662 4.72266 18.5844 4.72266C17.8025 4.72266 17.1687 5.35645 17.1687 6.13828C17.1687 6.92011 17.8025 7.55391 18.5844 7.55391Z" fill="white"/>
</g>
<defs>
<clipPath id="clip0_9_478">
<rect width="24" height="24" fill="white" transform="translate(0.279694 0.442383)"/>
</clipPath>
</defs>
</svg>
