<svg width="19" height="19" viewBox="0 0 19 19" fill="none" xmlns="http://www.w3.org/2000/svg">
<g clip-path="url(#clip0_9_474)">
<path fill-rule="evenodd" clip-rule="evenodd" d="M18.8297 18.4424H15.1313V12.1431C15.1313 10.416 14.4751 9.45088 13.1081 9.45088C11.621 9.45088 10.844 10.4553 10.844 12.1431V18.4424H7.27974V6.44239H10.844V8.05878C10.844 8.05878 11.9157 6.07576 14.4622 6.07576C17.0075 6.07576 18.8297 7.63008 18.8297 10.8447V18.4424ZM3.02759 4.87108C1.81353 4.87108 0.829742 3.87957 0.829742 2.65673C0.829742 1.43389 1.81353 0.442383 3.02759 0.442383C4.24165 0.442383 5.22485 1.43389 5.22485 2.65673C5.22485 3.87957 4.24165 4.87108 3.02759 4.87108ZM1.18717 18.4424H4.90377V6.44239H1.18717V18.4424Z" fill="white"/>
</g>
<defs>
<clipPath id="clip0_9_474">
<rect width="18" height="18" fill="white" transform="translate(0.829742 0.442383)"/>
</clipPath>
</defs>
</svg>
