<svg width="118" height="83" viewBox="0 0 118 83" fill="none" xmlns="http://www.w3.org/2000/svg">
<path d="M58.949 24.8555C39.4497 24.8221 19.9505 24.6882 0.451325 24.7069C0.0920915 24.7069 -0.00803087 24.6263 0.00152855 24.2541C0.0895759 20.8308 0.162529 17.4076 0.221395 13.9839C0.227433 13.632 0.342649 13.5807 0.656097 13.5817C13.1981 13.6284 25.7395 13.669 38.2815 13.704C48.091 13.7308 57.9004 13.7481 67.7099 13.7719C72.7346 13.7841 77.7594 13.7983 82.7841 13.8252C83.1187 13.8272 83.1957 13.743 83.1952 13.4093C83.1831 9.07122 83.1911 4.73312 83.1791 0.395525C83.1781 0.0552319 83.2596 -0.0112038 83.5941 0.00096765C85.7913 0.0826176 87.9895 0.138403 90.1871 0.194696C90.406 0.200275 90.5957 0.239832 90.7884 0.353432C99.7601 5.6546 108.734 10.9517 117.711 16.2437C117.921 16.3675 117.998 16.5014 117.998 16.7489C117.988 19.3277 117.984 21.906 118 24.4848C118.002 24.8327 117.928 24.9306 117.567 24.9296C105.878 24.8971 94.189 24.8723 82.5004 24.8581C74.6501 24.8484 66.7998 24.856 58.9495 24.856L58.949 24.8555Z" fill="#D73D35"/>
<path d="M59.034 58.3072C78.5347 58.3072 98.0354 58.3087 117.537 58.2966C117.941 58.2966 118.001 58.4127 117.992 58.7839C117.919 62.1945 117.861 65.605 117.815 69.016C117.81 69.3609 117.699 69.4273 117.381 69.4263C94.4013 69.3568 71.422 69.2955 48.4421 69.2321C44.0569 69.2199 39.6716 69.2083 35.2864 69.1799C34.9146 69.1773 34.7968 69.2483 34.7983 69.6525C34.8149 73.91 34.8089 78.1679 34.8089 82.4259C34.8089 83.0203 34.8089 83.0117 34.2338 82.9939C32.0895 82.9285 29.9447 82.8671 27.7998 82.8103C27.5956 82.8048 27.4195 82.7662 27.2378 82.6592C18.2535 77.352 9.26662 72.0493 0.27624 66.7517C0.064926 66.6269 0.000525728 66.4879 0.00153198 66.244C0.0115945 63.6652 0.0141102 61.0864 2.26008e-05 58.5075C-0.00148678 58.1794 0.0719698 58.0841 0.412084 58.0851C18.6333 58.1333 36.8541 58.1718 55.0754 58.2104C56.3951 58.2134 57.7148 58.2104 59.034 58.2104C59.034 58.2423 59.034 58.2743 59.034 58.3062V58.3072Z" fill="#D73D35"/>
<path d="M40.3111 45.4882C40.3111 40.2372 40.3111 35.0405 40.3111 29.8443C40.3111 29.4685 40.3207 29.0922 40.3076 28.7165C40.3005 28.5202 40.371 28.4669 40.5591 28.4674C41.9719 28.474 43.3842 28.4756 44.797 28.4664C45.0184 28.4649 45.0792 28.5501 45.0561 28.7489C45.0485 28.8153 45.0551 28.8833 45.0551 28.9502C45.0551 37.1822 45.0521 45.4141 45.0646 53.6461C45.0651 54.0381 44.9691 54.1304 44.5867 54.1233C43.1744 54.0979 41.7616 54.103 40.3488 54.1208C40.0319 54.1248 39.8527 54.0274 39.6852 53.7531C36.4466 48.4428 33.1974 43.1386 29.9497 37.8334C29.8813 37.7213 29.8098 37.6112 29.6725 37.3937C29.6725 37.6396 29.6725 37.7771 29.6725 37.9145C29.6725 43.1649 29.6679 48.4159 29.6815 53.6664C29.6825 54.0401 29.5819 54.1279 29.2227 54.1223C27.8904 54.1005 26.5576 54.1055 25.2248 54.1203C24.9506 54.1233 24.8686 54.0604 24.8691 53.7708C24.8772 45.4583 24.8777 37.1462 24.8681 28.8336C24.8681 28.5212 24.9587 28.4614 25.247 28.4644C26.6728 28.4796 28.0987 28.4791 29.5245 28.4644C29.7988 28.4619 29.9457 28.5521 30.0881 28.7869C33.383 34.22 36.6871 39.6474 39.9911 45.0743C40.0711 45.2057 40.1199 45.3639 40.3106 45.4882H40.3111Z" fill="white"/>
<path d="M1.12403 41.289C1.12403 37.1522 1.12855 33.0155 1.11598 28.8787C1.11497 28.5425 1.19748 28.4623 1.52955 28.4629C7.55399 28.474 13.5789 28.4745 19.6034 28.4623C19.9511 28.4618 20.0134 28.5673 20.0079 28.8889C19.9883 30.0568 19.9883 31.2258 20.0079 32.3942C20.0134 32.7112 19.9264 32.7918 19.614 32.7908C15.3087 32.7802 11.0034 32.7878 6.69818 32.7761C6.3485 32.7751 6.22624 32.842 6.23178 33.2275C6.25593 34.8523 6.2519 36.4777 6.23379 38.1026C6.23027 38.4257 6.32335 38.4941 6.62975 38.4936C10.615 38.483 14.6003 38.4916 18.5856 38.4784C18.9413 38.4774 19.0565 38.554 19.0474 38.9328C19.0203 40.0871 19.0238 41.2428 19.0459 42.3976C19.0525 42.7298 18.9408 42.7886 18.6414 42.7881C14.6561 42.779 10.6709 42.7881 6.6856 42.7729C6.31077 42.7714 6.23027 42.8794 6.23329 43.2385C6.25039 45.2934 6.24838 47.3483 6.23379 49.4033C6.23178 49.7071 6.30976 49.777 6.60661 49.7765C11.0719 49.7664 15.5371 49.773 20.0019 49.7618C20.3505 49.7608 20.4798 49.8252 20.4703 50.2137C20.4416 51.3948 20.4461 52.5775 20.4688 53.7591C20.4753 54.0913 20.345 54.1182 20.0743 54.1182C13.8763 54.1116 7.67877 54.1106 1.48074 54.1212C1.16931 54.1217 1.11547 54.0289 1.11648 53.7394C1.12604 49.5894 1.12302 45.4389 1.12302 41.289H1.12403Z" fill="white"/>
<path d="M72.2285 41.2677C72.2285 37.1446 72.2335 33.0215 72.2194 28.8985C72.2184 28.543 72.304 28.4613 72.6536 28.4623C78.6645 28.4745 84.6754 28.475 90.6867 28.4613C91.053 28.4603 91.1199 28.5653 91.1134 28.9061C91.0917 30.0608 91.0922 31.2161 91.1134 32.3709C91.1194 32.7015 91.0419 32.7933 90.7033 32.7923C86.4116 32.7796 82.12 32.7913 77.8283 32.7725C77.4082 32.7705 77.3332 32.8922 77.3388 33.2832C77.3614 34.8812 77.3584 36.4797 77.3398 38.0778C77.3357 38.4104 77.4142 38.4972 77.7503 38.4956C81.7356 38.4825 85.7203 38.4931 89.7056 38.4774C90.0845 38.4759 90.1594 38.5895 90.1524 38.9429C90.1308 40.0708 90.1303 41.1992 90.1524 42.3271C90.1594 42.6826 90.0804 42.7937 89.7046 42.7922C85.746 42.7769 81.7879 42.7901 77.8293 42.7714C77.4117 42.7693 77.3347 42.888 77.3388 43.281C77.3589 45.3223 77.3554 47.3635 77.3403 49.4053C77.3377 49.7116 77.4203 49.7775 77.7146 49.777C82.1929 49.7669 86.6713 49.775 91.1491 49.7603C91.5134 49.7593 91.5873 49.8612 91.5813 50.2066C91.5591 51.3882 91.5652 52.5704 91.5788 53.752C91.5818 54.0183 91.534 54.1207 91.2371 54.1202C85.013 54.1111 78.7888 54.1095 72.5646 54.1227C72.2134 54.1232 72.226 53.966 72.226 53.7175C72.23 49.5676 72.229 45.4176 72.229 41.2677H72.2285Z" fill="white"/>
<path d="M107.253 54.529C103.596 54.5411 100.83 53.6085 98.5738 51.3578C96.7183 49.5072 95.7025 47.2276 95.2839 44.6635C94.8507 42.0112 94.9045 39.3608 95.5882 36.7587C96.6337 32.7817 98.9808 29.9097 102.938 28.6444C106.072 27.6423 109.218 27.7442 112.229 29.2109C114.544 30.3383 116.039 32.204 116.856 34.6424C117.05 35.2229 116.861 35.5843 116.287 35.7266C114.997 36.0461 113.706 36.3601 112.418 36.6887C112.153 36.7561 112.043 36.7283 111.96 36.4219C111.239 33.7392 108.753 32.1031 105.988 32.4652C103.222 32.8278 101.465 34.4471 100.717 37.3784C100.333 38.8836 100.258 40.4268 100.326 41.9736C100.393 43.4631 100.571 44.9328 101.09 46.3493C102.474 50.13 107.294 51.4019 110.181 48.7318C111.242 47.7505 111.77 46.4689 112.124 45.1047C112.21 44.7715 112.298 44.7061 112.633 44.8177C114.045 45.2873 115.47 45.7194 116.888 46.1728C117.013 46.2128 117.231 46.1814 117.146 46.4624C116.419 48.8682 115.345 51.0566 113.27 52.5871C111.325 54.0223 109.089 54.5122 107.253 54.5285V54.529Z" fill="white"/>
<path d="M61.374 43.4712C61.374 46.8828 61.369 50.2943 61.3821 53.7054C61.3836 54.0431 61.2975 54.1263 60.966 54.1217C59.5265 54.102 58.0866 54.0974 56.6476 54.1243C56.2743 54.1314 56.225 54.0097 56.2255 53.6765C56.2351 46.8671 56.2285 40.0577 56.2426 33.2482C56.2436 32.8471 56.1319 32.7715 55.7576 32.7746C53.5318 32.7933 51.3059 32.7786 49.0801 32.7903C48.7928 32.7918 48.6927 32.7365 48.6982 32.4211C48.7188 31.2126 48.7148 30.0036 48.7002 28.795C48.6967 28.5237 48.7832 28.4659 49.0368 28.4659C55.5413 28.4725 62.0457 28.473 68.5501 28.4639C68.8495 28.4639 68.8912 28.5709 68.8887 28.8336C68.8761 30.0289 68.8711 31.2242 68.8912 32.4196C68.8963 32.733 68.7977 32.7918 68.5094 32.7903C66.2699 32.7786 64.031 32.7903 61.7916 32.7766C61.4651 32.7746 61.3644 32.8557 61.366 33.197C61.3785 36.6218 61.3735 40.0465 61.3735 43.4717L61.374 43.4712Z" fill="white"/>
</svg>
