<svg width="187" height="51" viewBox="0 0 187 51" fill="none" xmlns="http://www.w3.org/2000/svg">
<g clip-path="url(#clip0_47_13360)">
<path d="M176.173 24.2488L186.086 50.3191C183.164 49.9046 180.245 49.3855 177.272 48.9177L171.688 34.5129L165.951 47.7286C163.135 47.2609 160.369 47.1051 157.552 46.7419L167.62 23.9388L158.489 0.56665H166.941L172.052 13.625L177.531 0.56665H186.084L176.173 24.2488ZM151.815 0.56665H144.146V45.7585C146.651 45.9144 149.258 46.0171 151.815 46.3273V0.56665ZM137.521 45.2395C130.532 44.7734 123.541 44.3605 116.394 44.2029V0.566851H124.219V36.8444C128.706 36.9473 133.191 37.3089 137.521 37.5162V45.2395ZM108.046 18.2403V26.0133H97.3529V43.6854H89.6342V0.56665H111.544V8.33962H97.3545V18.2405H108.048L108.046 18.2403ZM76.4867 8.33962V44.1C73.8777 44.1 71.2186 44.1 68.6612 44.2029V8.33962H60.5752V0.56665H84.6226V8.33962H76.4867ZM52.1253 26.4264C48.6831 26.4264 44.6133 26.4264 41.6921 26.5839V38.1397C46.2826 37.8279 50.8732 37.4663 55.5153 37.3105V44.7734L33.8682 46.4849V0.56665H55.5139V8.33962H41.6919V18.8092C44.7183 18.8092 49.3607 18.6534 52.1249 18.6534V26.428L52.1253 26.4264ZM8.77358 22.073V49.2295C5.95916 49.5412 3.45349 49.9044 0.79425 50.3191V0.56665H8.25443L18.4256 28.813V0.56665H26.2512V47.1051C23.4868 47.5729 20.6691 47.7286 17.6961 48.1417L8.77358 22.073Z" fill="#CFCFDE"/>
</g>
<defs>
<clipPath id="clip0_47_13360">
<rect width="185.291" height="49.85" fill="white" transform="translate(0.79425 0.516846)"/>
</clipPath>
</defs>
</svg>
