<svg width="31" height="31" viewBox="0 0 31 31" fill="none" xmlns="http://www.w3.org/2000/svg">
<g clip-path="url(#clip0_47_13384)">
<path d="M15.3282 30.3792C7.09667 30.3792 0.39978 23.6823 0.39978 15.4507C0.39978 7.21921 7.09667 0.52232 15.3282 0.52232C23.5597 0.52232 30.2566 7.21921 30.2566 15.4507C30.2566 23.6823 23.5597 30.3792 15.3282 30.3792ZM15.6599 20.811C17.809 20.8455 19.8923 21.2124 21.7862 21.8719C22.2583 20.0334 22.534 17.9683 22.5595 15.7825H15.6599V20.811ZM15.6599 21.4745V29.6991C18.2074 29.4712 20.4145 26.6331 21.6107 22.5129C19.7762 21.8686 17.7516 21.509 15.6599 21.4745ZM14.9965 21.4745C12.9045 21.509 10.8802 21.8686 9.04532 22.5132C10.2416 26.6331 12.4487 29.4712 14.9965 29.6991V21.4745ZM14.9965 20.811V15.7825H8.09687C8.12242 17.9683 8.39809 20.0334 8.87016 21.8719C10.7641 21.2124 12.8474 20.8455 14.9965 20.811ZM7.43339 15.7825H1.07156C1.14653 19.0395 2.31626 22.0295 4.22908 24.3978C5.3935 23.4577 6.75696 22.6821 8.25777 22.0962C7.75319 20.187 7.45993 18.0463 7.43339 15.7825ZM7.43339 15.119C7.45959 12.8552 7.75319 10.7144 8.25777 8.80494C6.75729 8.21908 5.3935 7.44346 4.22942 6.50331C2.31626 8.87195 1.14653 11.8619 1.07156 15.119H7.43339ZM8.09687 15.119H14.9965V10.0908C12.8474 10.0563 10.7641 9.68903 8.87016 9.02953C8.39809 10.868 8.12242 12.9331 8.09687 15.119ZM14.9965 9.42729V1.20239C12.4487 1.4303 10.2416 4.26836 9.04532 8.3886C10.8802 9.03284 12.9048 9.39245 14.9965 9.42729ZM15.6599 9.42729C17.7516 9.39278 19.7762 9.03317 21.6107 8.38893C20.4145 4.26836 18.2077 1.4303 15.6599 1.20239V9.42729ZM15.6599 10.0908V15.119H22.5595C22.534 12.9331 22.2583 10.868 21.7862 9.02953C19.8923 9.68903 17.809 10.0563 15.6599 10.0908ZM23.2227 15.119H29.5848C29.5099 11.8619 28.3401 8.87195 26.427 6.50331C25.2626 7.44346 23.8991 8.21941 22.3983 8.80494C22.9029 10.7148 23.1965 12.8552 23.2227 15.119ZM23.2227 15.7825C23.1965 18.0463 22.9029 20.1867 22.3983 22.0962C23.8991 22.6821 25.2626 23.4577 26.427 24.3978C28.3401 22.0292 29.5095 19.0392 29.5845 15.7825H23.2227ZM25.998 24.9041C24.9046 24.0233 23.6254 23.2945 22.2182 22.7385C21.3062 25.8064 19.8382 28.2076 18.0734 29.4479C21.1994 28.8359 23.9618 27.1997 25.998 24.9041ZM12.583 29.4479C10.8182 28.2076 9.35019 25.8064 8.43823 22.7388C7.03098 23.2948 5.75178 24.0236 4.65836 24.9044C6.69426 27.1997 9.45668 28.8359 12.583 29.4479ZM4.65803 5.9974C5.75145 6.87818 7.03032 7.60701 8.4379 8.16301C9.34986 5.09539 10.8178 2.69424 12.5827 1.45385C9.45668 2.06559 6.69426 3.70174 4.65803 5.9974ZM18.0734 1.45352C19.8382 2.69391 21.3062 5.09506 22.2182 8.16301C23.6257 7.60701 24.9046 6.87818 25.998 5.9974C23.9618 3.70174 21.1997 2.06559 18.0734 1.45352Z" fill="black"/>
</g>
<defs>
<clipPath id="clip0_47_13384">
<rect width="30.3221" height="30.3221" fill="white" transform="matrix(1 0 0 -1 0.167114 30.6121)"/>
</clipPath>
</defs>
</svg>
